<svg width="150" height="60" viewBox="0 0 150 60" fill="none" xmlns="http://www.w3.org/2000/svg">
<g clip-path="url(#clip0_203_44)">
<path d="M36.0095 16.25V5.75H36.8775L41.4309 13.94H40.9755L45.4862 5.75H46.3542V16.25H45.3439V7.415H45.5858L41.4309 14.915H40.9328L36.7494 7.415H37.0198V16.25H36.0095Z" fill="black"/>
<path d="M65.2649 16.34C64.5155 16.34 63.8183 16.21 63.1732 15.95C62.5377 15.68 61.9827 15.305 61.5084 14.825C61.0436 14.335 60.6784 13.77 60.4128 13.13C60.1566 12.48 60.0286 11.77 60.0286 11C60.0286 10.23 60.1566 9.52497 60.4128 8.88497C60.6784 8.23497 61.0436 7.66997 61.5084 7.18997C61.9827 6.69997 62.5377 6.32497 63.1732 6.06497C63.8088 5.79497 64.506 5.65997 65.2649 5.65997C66.0143 5.65997 66.7068 5.79497 67.3424 6.06497C67.978 6.32497 68.5282 6.69497 68.993 7.17497C69.4673 7.65497 69.8325 8.21997 70.0886 8.86997C70.3543 9.51997 70.4871 10.23 70.4871 11C70.4871 11.77 70.3543 12.48 70.0886 13.13C69.8325 13.78 69.4673 14.345 68.993 14.825C68.5282 15.305 67.978 15.68 67.3424 15.95C66.7068 16.21 66.0143 16.34 65.2649 16.34ZM65.2649 15.35C65.8626 15.35 66.4128 15.245 66.9155 15.035C67.4278 14.815 67.8689 14.51 68.2388 14.12C68.6183 13.72 68.9124 13.26 69.1211 12.74C69.3297 12.21 69.4341 11.63 69.4341 11C69.4341 10.37 69.3297 9.79497 69.1211 9.27497C68.9124 8.74497 68.6183 8.28497 68.2388 7.89497C67.8689 7.49497 67.4278 7.18997 66.9155 6.97997C66.4128 6.75997 65.8626 6.64997 65.2649 6.64997C64.6673 6.64997 64.1124 6.75997 63.6001 6.97997C63.0879 7.18997 62.642 7.49497 62.2626 7.89497C61.8926 8.28497 61.5985 8.74497 61.3803 9.27497C61.1716 9.79497 61.0673 10.37 61.0673 11C61.0673 11.62 61.1716 12.195 61.3803 12.725C61.5985 13.255 61.8926 13.72 62.2626 14.12C62.642 14.51 63.0879 14.815 63.6001 15.035C64.1124 15.245 64.6673 15.35 65.2649 15.35Z" fill="black"/>
<path d="M83.4404 16.25V5.75H84.3084L91.1812 14.87H90.7258V5.75H91.7645V16.25H90.8966L84.0381 7.13H84.4934V16.25H83.4404Z" fill="black"/>
<path d="M106.563 16.25V5.75H107.616V16.25H106.563Z" fill="black"/>
<path d="M121.11 13.64L121.067 12.29L127.1 5.75H128.31L123.913 10.61L123.315 11.285L121.11 13.64ZM120.199 16.25V5.75H121.252V16.25H120.199ZM127.357 16.25L123.059 11.03L123.771 10.22L128.609 16.25H127.357Z" fill="black"/>
<path d="M138.764 16.25L143.317 5.75H144.356L148.909 16.25H147.799L143.616 6.395H144.043L139.859 16.25H138.764ZM140.557 13.445L140.87 12.545H146.661L146.974 13.445H140.557Z" fill="black"/>
<path d="M39.9415 36.965C39.2016 36.965 38.4902 36.84 37.8072 36.59C37.1336 36.33 36.6119 36 36.2419 35.6L36.6546 34.745C37.0056 35.105 37.4751 35.41 38.0633 35.66C38.6609 35.9 39.287 36.02 39.9415 36.02C40.5676 36.02 41.0751 35.94 41.4641 35.78C41.8625 35.61 42.1518 35.385 42.3321 35.105C42.5218 34.825 42.6166 34.515 42.6166 34.175C42.6166 33.765 42.5028 33.435 42.2751 33.185C42.057 32.935 41.7676 32.74 41.4072 32.6C41.0467 32.45 40.6483 32.32 40.2119 32.21C39.7755 32.1 39.3392 31.985 38.9028 31.865C38.4664 31.735 38.0633 31.565 37.6933 31.355C37.3329 31.145 37.0388 30.87 36.8111 30.53C36.5929 30.18 36.4838 29.725 36.4838 29.165C36.4838 28.645 36.6119 28.17 36.868 27.74C37.1336 27.3 37.5368 26.95 38.0775 26.69C38.6182 26.42 39.3107 26.285 40.155 26.285C40.7147 26.285 41.2696 26.37 41.8198 26.54C42.37 26.7 42.8443 26.925 43.2427 27.215L42.887 28.1C42.4601 27.8 42.0048 27.58 41.521 27.44C41.0467 27.3 40.5866 27.23 40.1408 27.23C39.5431 27.23 39.0498 27.315 38.6609 27.485C38.272 27.655 37.9827 27.885 37.7929 28.175C37.6127 28.455 37.5226 28.775 37.5226 29.135C37.5226 29.545 37.6317 29.875 37.8498 30.125C38.0775 30.375 38.3716 30.57 38.7321 30.71C39.102 30.85 39.5052 30.975 39.9415 31.085C40.3779 31.195 40.8095 31.315 41.2364 31.445C41.6728 31.575 42.0712 31.745 42.4317 31.955C42.8016 32.155 43.0957 32.425 43.3139 32.765C43.5415 33.105 43.6554 33.55 43.6554 34.1C43.6554 34.61 43.5226 35.085 43.257 35.525C42.9914 35.955 42.5834 36.305 42.0333 36.575C41.4925 36.835 40.7953 36.965 39.9415 36.965Z" fill="black"/>
<path d="M56.1675 36.875V26.375H57.2204V36.875H56.1675Z" fill="black"/>
<path d="M71.9004 34.265L71.8577 32.915L77.8909 26.375H79.1004L74.7036 31.235L74.1059 31.91L71.9004 34.265ZM70.9897 36.875V26.375H72.0427V36.875H70.9897ZM78.1471 36.875L73.8498 31.655L74.5613 30.845L79.3992 36.875H78.1471Z" fill="black"/>
<path d="M97.2806 36.965C96.5311 36.965 95.8339 36.835 95.1889 36.575C94.5533 36.305 93.9983 35.93 93.524 35.45C93.0592 34.96 92.694 34.395 92.4284 33.755C92.1722 33.105 92.0442 32.395 92.0442 31.625C92.0442 30.855 92.1722 30.15 92.4284 29.51C92.694 28.86 93.0592 28.295 93.524 27.815C93.9983 27.325 94.5533 26.95 95.1889 26.69C95.8244 26.42 96.5217 26.285 97.2806 26.285C98.03 26.285 98.7224 26.42 99.358 26.69C99.9936 26.95 100.544 27.32 101.009 27.8C101.483 28.28 101.848 28.845 102.104 29.495C102.37 30.145 102.503 30.855 102.503 31.625C102.503 32.395 102.37 33.105 102.104 33.755C101.848 34.405 101.483 34.97 101.009 35.45C100.544 35.93 99.9936 36.305 99.358 36.575C98.7224 36.835 98.03 36.965 97.2806 36.965ZM97.2806 35.975C97.8782 35.975 98.4284 35.87 98.9311 35.66C99.4434 35.44 99.8845 35.135 100.254 34.745C100.634 34.345 100.928 33.885 101.137 33.365C101.345 32.835 101.45 32.255 101.45 31.625C101.45 30.995 101.345 30.42 101.137 29.9C100.928 29.37 100.634 28.91 100.254 28.52C99.8845 28.12 99.4434 27.815 98.9311 27.605C98.4284 27.385 97.8782 27.275 97.2806 27.275C96.6829 27.275 96.128 27.385 95.6157 27.605C95.1035 27.815 94.6576 28.12 94.2782 28.52C93.9082 28.91 93.6141 29.37 93.396 29.9C93.1873 30.42 93.0829 30.995 93.0829 31.625C93.0829 32.245 93.1873 32.82 93.396 33.35C93.6141 33.88 93.9082 34.345 94.2782 34.745C94.6576 35.135 95.1035 35.44 95.6157 35.66C96.128 35.87 96.6829 35.975 97.2806 35.975Z" fill="black"/>
<path d="M116.642 36.875V26.375H120.37C121.214 26.375 121.94 26.52 122.547 26.81C123.154 27.09 123.619 27.5 123.941 28.04C124.273 28.57 124.439 29.215 124.439 29.975C124.439 30.715 124.273 31.355 123.941 31.895C123.619 32.425 123.154 32.835 122.547 33.125C121.94 33.405 121.214 33.545 120.37 33.545H117.225L117.695 33.035V36.875H116.642ZM123.443 36.875L120.882 33.065H122.021L124.596 36.875H123.443ZM117.695 33.125L117.225 32.6H120.341C121.338 32.6 122.092 32.37 122.604 31.91C123.126 31.45 123.387 30.805 123.387 29.975C123.387 29.135 123.126 28.485 122.604 28.025C122.092 27.565 121.338 27.335 120.341 27.335H117.225L117.695 26.81V33.125Z" fill="black"/>
<path d="M138.764 36.875L143.317 26.375H144.356L148.909 36.875H147.799L143.616 27.02H144.043L139.859 36.875H138.764ZM140.557 34.07L140.87 33.17H146.661L146.974 34.07H140.557Z" fill="black"/>
<path d="M37.2473 54.375V47.375H39.7327C40.2955 47.375 40.7793 47.4717 41.1841 47.665C41.5888 47.8517 41.8987 48.125 42.1137 48.485C42.335 48.8383 42.4457 49.2683 42.4457 49.775C42.4457 50.2683 42.335 50.695 42.1137 51.055C41.8987 51.4083 41.5888 51.6817 41.1841 51.875C40.7793 52.0617 40.2955 52.155 39.7327 52.155H37.6362L37.9493 51.815V54.375H37.2473ZM41.7817 54.375L40.0742 51.835H40.8331L42.5501 54.375H41.7817ZM37.9493 51.875L37.6362 51.525H39.7137C40.3777 51.525 40.8805 51.3717 41.222 51.065C41.5699 50.7583 41.7438 50.3283 41.7438 49.775C41.7438 49.215 41.5699 48.7817 41.222 48.475C40.8805 48.1683 40.3777 48.015 39.7137 48.015H37.6362L37.9493 47.665V51.875Z" fill="black"/>
<path d="M45.6711 54.375L48.7067 47.375H49.3992L52.4348 54.375H51.6949L48.9059 47.805H49.1905L46.4016 54.375H45.6711ZM46.8664 52.505L47.0751 51.905H50.936L51.1447 52.505H46.8664Z" fill="black"/>
<path d="M56.2197 54.375V47.375H58.9233C59.6318 47.375 60.2513 47.525 60.7826 47.825C61.3203 48.1183 61.7377 48.5283 62.0348 49.055C62.3318 49.5817 62.4806 50.1883 62.4806 50.875C62.4806 51.5617 62.3318 52.1683 62.0348 52.695C61.7377 53.2217 61.3203 53.635 60.7826 53.935C60.2513 54.2283 59.6318 54.375 58.9233 54.375H56.2197ZM56.9217 53.735H58.8853C59.4735 53.735 59.9828 53.615 60.4126 53.375C60.849 53.1283 61.1875 52.7917 61.4276 52.365C61.6678 51.9317 61.7881 51.435 61.7881 50.875C61.7881 50.3083 61.6678 49.8117 61.4276 49.385C61.1875 48.9583 60.849 48.625 60.4126 48.385C59.9828 48.1383 59.4735 48.015 58.8853 48.015H56.9217V53.735Z" fill="black"/>
<path d="M69.7754 54.435C69.2756 54.435 68.8143 54.3483 68.3904 54.175C67.9665 53.995 67.6001 53.745 67.29 53.425C66.9799 53.105 66.7369 52.7283 66.5596 52.295C66.3888 51.8617 66.3035 51.3883 66.3035 50.875C66.3035 50.3617 66.3888 49.8883 66.5596 49.455C66.7369 49.0217 66.9799 48.645 67.29 48.325C67.606 48.005 67.976 47.7583 68.3999 47.585C68.8238 47.405 69.2851 47.315 69.7849 47.315C70.2657 47.315 70.7175 47.4017 71.1414 47.575C71.5653 47.7417 71.9222 47.995 72.2133 48.335L71.7675 48.805C71.4954 48.5117 71.1954 48.3017 70.8663 48.175C70.5373 48.0417 70.1833 47.975 69.8039 47.975C69.4054 47.975 69.0355 48.0483 68.694 48.195C68.3525 48.335 68.0554 48.5383 67.8023 48.805C67.5491 49.065 67.3499 49.3717 67.2047 49.725C67.0653 50.0717 66.996 50.455 66.996 50.875C66.996 51.295 67.0653 51.6817 67.2047 52.035C67.3499 52.3817 67.5491 52.6883 67.8023 52.955C68.0554 53.215 68.3525 53.4183 68.694 53.565C69.0355 53.705 69.4054 53.775 69.8039 53.775C70.1833 53.775 70.5373 53.7083 70.8663 53.575C71.1954 53.4417 71.4954 53.2283 71.7675 52.935L72.2133 53.405C71.9222 53.745 71.5653 54.0017 71.1414 54.175C70.7175 54.3483 70.2622 54.435 69.7754 54.435Z" fill="black"/>
<path d="M75.9082 54.375L78.9438 47.375H79.6363L82.6718 54.375H81.9319L79.143 47.805H79.4276L76.6386 54.375H75.9082ZM77.1035 52.505L77.3122 51.905H81.173L81.3817 52.505H77.1035Z" fill="black"/>
<path d="M92.9788 54.375V47.375H95.4641C96.0268 47.375 96.5106 47.4717 96.9155 47.665C97.3205 47.8517 97.6299 48.125 97.8452 48.485C98.0663 48.8383 98.1772 49.2683 98.1772 49.775C98.1772 50.2683 98.0663 50.695 97.8452 51.055C97.6299 51.4083 97.3205 51.6817 96.9155 51.875C96.5106 52.0683 96.0268 52.165 95.4641 52.165H93.3677L93.6807 51.815V54.375H92.9788ZM93.6807 51.875L93.3677 51.515H95.4452C96.1092 51.515 96.612 51.365 96.9535 51.065C97.3015 50.7583 97.4752 50.3283 97.4752 49.775C97.4752 49.215 97.3015 48.7817 96.9535 48.475C96.612 48.1683 96.1092 48.015 95.4452 48.015H93.3677L93.6807 47.665V51.875Z" fill="black"/>
<path d="M101.279 54.375V47.375H103.764C104.327 47.375 104.811 47.4717 105.216 47.665C105.621 47.8517 105.93 48.125 106.145 48.485C106.367 48.8383 106.477 49.2683 106.477 49.775C106.477 50.2683 106.367 50.695 106.145 51.055C105.93 51.4083 105.621 51.6817 105.216 51.875C104.811 52.0617 104.327 52.155 103.764 52.155H101.668L101.981 51.815V54.375H101.279ZM105.813 54.375L104.106 51.835H104.865L106.582 54.375H105.813ZM101.981 51.875L101.668 51.525H103.745C104.409 51.525 104.912 51.3717 105.254 51.065C105.602 50.7583 105.775 50.3283 105.775 49.775C105.775 49.215 105.602 48.7817 105.254 48.475C104.912 48.1683 104.409 48.015 103.745 48.015H101.668L101.981 47.665V51.875Z" fill="black"/>
<path d="M109.703 54.375L112.738 47.375H113.431L116.467 54.375H115.727L112.938 47.805H113.222L110.433 54.375H109.703ZM110.898 52.505L111.107 51.905H114.968L115.176 52.505H110.898Z" fill="black"/>
<path d="M122.353 54.375L120.114 47.375H120.835L122.931 53.965H122.571L124.734 47.375H125.379L127.513 53.965H127.171L129.287 47.375H129.96L127.722 54.375H126.982L124.942 48.125H125.132L123.083 54.375H122.353Z" fill="black"/>
<path d="M133.295 54.375V47.375H133.874L138.455 53.455H138.152V47.375H138.844V54.375H138.266L133.693 48.295H133.997V54.375H133.295Z" fill="black"/>
<path d="M146.144 54.375V51.775L146.305 52.235L143.488 47.375H144.237L146.713 51.645H146.315L148.791 47.375H149.493L146.675 52.235L146.836 51.775V54.375H146.144Z" fill="black"/>
<path d="M25.1976 0.3125H0.296387V59.6875H25.1976V0.3125Z" stroke="#DDBF6A"/>
<path d="M7.55103 21.875V11.375H8.41901L12.9724 19.565H12.517L17.0277 11.375H17.8957V21.875H16.8854V13.04H17.1273L12.9724 20.54H12.4743L8.29095 13.04H8.5613V21.875H7.55103Z" fill="black"/>
<path d="M12.6688 45.715C11.9289 45.715 11.2175 45.59 10.5345 45.34C9.86094 45.08 9.3392 44.75 8.96924 44.35L9.38189 43.495C9.73287 43.855 10.2024 44.16 10.7906 44.41C11.3882 44.65 12.0143 44.77 12.6688 44.77C13.2949 44.77 13.8024 44.69 14.1914 44.53C14.5898 44.36 14.8791 44.135 15.0594 43.855C15.2491 43.575 15.3439 43.265 15.3439 42.925C15.3439 42.515 15.2301 42.185 15.0024 41.935C14.7843 41.685 14.4949 41.49 14.1345 41.35C13.774 41.2 13.3756 41.07 12.9392 40.96C12.5028 40.85 12.0665 40.735 11.6301 40.615C11.1937 40.485 10.7906 40.315 10.4206 40.105C10.0601 39.895 9.76608 39.62 9.53841 39.28C9.32023 38.93 9.21114 38.475 9.21114 37.915C9.21114 37.395 9.3392 36.92 9.59533 36.49C9.86094 36.05 10.2641 35.7 10.8048 35.44C11.3455 35.17 12.038 35.035 12.8823 35.035C13.442 35.035 13.9969 35.12 14.5471 35.29C15.0973 35.45 15.5716 35.675 15.97 35.965L15.6143 36.85C15.1874 36.55 14.7321 36.33 14.2483 36.19C13.774 36.05 13.3139 35.98 12.8681 35.98C12.2704 35.98 11.7771 36.065 11.3882 36.235C10.9993 36.405 10.7099 36.635 10.5202 36.925C10.34 37.205 10.2499 37.525 10.2499 37.885C10.2499 38.295 10.359 38.625 10.5771 38.875C10.8048 39.125 11.0989 39.32 11.4594 39.46C11.8293 39.6 12.2325 39.725 12.6688 39.835C13.1052 39.945 13.5368 40.065 13.9637 40.195C14.4001 40.325 14.7985 40.495 15.159 40.705C15.5289 40.905 15.823 41.175 16.0412 41.515C16.2688 41.855 16.3827 42.3 16.3827 42.85C16.3827 43.36 16.2499 43.835 15.9843 44.275C15.7186 44.705 15.3107 45.055 14.7605 45.325C14.2198 45.585 13.5226 45.715 12.6688 45.715Z" fill="black"/>
</g>
<defs>
<clipPath id="clip0_203_44">
<rect width="150" height="60" fill="white"/>
</clipPath>
</defs>
</svg>
